<?xml version="1.0" standalone="no"?>
<!DOCTYPE svg PUBLIC "-//W3C//DTD SVG 20010904//EN"
 "http://www.w3.org/TR/2001/REC-SVG-20010904/DTD/svg10.dtd">
<svg version="1.0" xmlns="http://www.w3.org/2000/svg"
 width="512.000000pt" height="512.000000pt" viewBox="0 0 512.000000 512.000000"
 preserveAspectRatio="xMidYMid meet">
<metadata>
Created by potrace 1.15, written by Peter Selinger 2001-2017
</metadata>
<g transform="translate(0.000000,512.000000) scale(0.100000,-0.100000)"
fill="#000000" stroke="none">
<path d="M203 4958 c-174 -172 -196 -198 -191 -231 3 -19 32 5 192 163 103
102 192 193 197 203 8 14 5 17 -17 17 -21 0 -60 -33 -181 -152z"/>
<path d="M303 4858 c-140 -139 -264 -265 -275 -281 -10 -15 -18 -37 -16 -50 3
-18 49 23 292 263 158 157 292 293 297 303 8 14 5 17 -17 17 -22 0 -75 -47
-281 -252z"/>
<path d="M402 4758 c-194 -194 -362 -365 -373 -381 -11 -15 -19 -37 -17 -50 4
-18 67 40 392 363 213 212 392 393 397 403 8 14 5 17 -18 17 -22 0 -89 -62
-381 -352z"/>
<path d="M502 4658 c-249 -249 -462 -465 -473 -481 -11 -15 -19 -37 -17 -50 4
-18 84 57 492 463 268 267 492 493 497 503 8 14 5 17 -18 17 -22 0 -104 -76
-481 -452z"/>
<path d="M602 4558 c-304 -304 -562 -565 -573 -581 -11 -15 -19 -37 -17 -50 4
-18 101 75 592 563 323 322 592 593 597 603 8 14 5 17 -18 17 -23 0 -118 -91
-581 -552z"/>
<path d="M702 4458 c-359 -359 -662 -665 -673 -681 -11 -15 -19 -37 -17 -50 4
-18 118 92 692 663 378 377 692 693 697 703 8 14 5 17 -18 17 -23 0 -133 -106
-681 -652z"/>
<path d="M802 4358 c-414 -414 -762 -765 -773 -781 -11 -15 -19 -37 -17 -50 4
-18 136 109 792 763 433 432 792 793 797 803 8 14 5 17 -18 17 -23 0 -148
-120 -781 -752z"/>
<path d="M902 4258 c-469 -469 -862 -865 -873 -881 -11 -15 -19 -37 -17 -50 4
-18 153 126 892 863 488 487 892 893 897 903 8 14 5 17 -18 17 -23 0 -162
-135 -881 -852z"/>
<path d="M1002 4158 c-524 -524 -962 -965 -973 -981 -11 -15 -19 -37 -17 -50
4 -18 170 144 992 963 543 542 992 993 997 1003 8 14 5 17 -18 17 -23 0 -177
-149 -981 -952z"/>
<path d="M1102 4058 c-579 -579 -1062 -1065 -1073 -1081 -11 -15 -19 -37 -17
-50 4 -18 188 161 1092 1063 598 597 1092 1093 1097 1103 8 14 5 17 -18 17
-23 0 -191 -164 -1081 -1052z"/>
<path d="M1202 3958 c-634 -634 -1162 -1165 -1173 -1181 -11 -15 -19 -37 -17
-50 4 -18 205 178 1192 1163 653 652 1192 1193 1197 1203 8 14 5 17 -18 17
-23 0 -206 -178 -1181 -1152z"/>
<path d="M1302 3858 c-689 -689 -1262 -1265 -1273 -1281 -11 -15 -19 -37 -17
-50 4 -18 222 195 1292 1263 708 707 1292 1293 1297 1303 8 14 5 17 -18 17
-23 0 -220 -193 -1281 -1252z"/>
<path d="M1402 3758 c-744 -744 -1362 -1365 -1373 -1381 -11 -15 -19 -37 -17
-50 4 -18 239 213 1392 1363 763 762 1392 1393 1397 1403 8 14 5 17 -18 17
-23 0 -235 -207 -1381 -1352z"/>
<path d="M1502 3658 c-799 -799 -1462 -1465 -1473 -1481 -11 -15 -19 -37 -17
-50 4 -18 257 230 1492 1463 818 817 1492 1493 1497 1503 8 14 5 17 -18 17
-23 0 -250 -222 -1481 -1452z"/>
<path d="M1602 3558 c-854 -854 -1562 -1565 -1573 -1581 -11 -15 -19 -37 -17
-50 4 -18 274 247 1592 1563 873 872 1592 1593 1597 1603 8 14 5 17 -18 17
-24 0 -264 -236 -1581 -1552z"/>
<path d="M1702 3458 c-909 -909 -1662 -1665 -1673 -1681 -11 -15 -19 -37 -17
-50 4 -18 291 264 1692 1663 928 927 1692 1693 1697 1703 8 14 5 17 -18 17
-24 0 -279 -251 -1681 -1652z"/>
<path d="M2890 4448 c-882 -878 -1664 -1661 -2333 -2334 -451 -454 -547 -555
-547 -577 0 -15 3 -27 7 -27 4 0 243 235 530 522 428 427 523 518 523 498 1
-14 7 -36 15 -50 14 -25 8 -31 -531 -570 -454 -456 -544 -550 -544 -573 0 -23
3 -26 18 -18 9 5 262 255 562 555 l544 546 33 -32 33 -32 -595 -596 c-498
-499 -595 -600 -595 -623 0 -23 3 -26 18 -18 9 5 285 278 612 605 l594 596 33
-32 33 -32 -645 -646 c-541 -541 -645 -650 -645 -673 0 -23 3 -26 18 -18 9 5
307 300 662 655 l645 646 32 -32 33 -32 -695 -696 c-583 -584 -695 -700 -695
-723 0 -23 3 -26 18 -18 9 5 330 323 712 705 l695 696 32 -32 33 -32 -745
-746 c-626 -627 -745 -750 -745 -773 0 -23 3 -26 18 -18 9 5 352 345 762 755
l745 746 32 -32 33 -32 -795 -796 c-669 -669 -795 -800 -795 -823 0 -23 3 -26
18 -18 9 5 375 368 812 805 l795 796 32 -32 33 -32 -845 -846 c-712 -712 -845
-850 -845 -873 0 -23 3 -26 18 -18 9 5 397 390 862 855 l845 846 32 -32 33
-32 -870 -871 c-478 -479 -870 -874 -870 -878 0 -4 12 -7 27 -7 23 0 168 141
888 860 l861 860 32 -33 32 -32 -811 -810 c-446 -446 -815 -818 -820 -827 -8
-15 -5 -18 18 -18 23 0 156 128 838 810 l811 810 32 -33 32 -32 -761 -760
c-418 -418 -765 -768 -770 -777 -8 -15 -5 -18 18 -18 23 0 149 121 788 760
l761 760 32 -33 32 -32 -711 -710 c-391 -391 -715 -718 -720 -727 -8 -15 -5
-18 18 -18 23 0 141 114 738 710 l711 710 32 -33 32 -32 -661 -660 c-363 -363
-665 -668 -670 -677 -8 -15 -5 -18 18 -18 23 0 134 107 689 661 601 601 663
660 682 650 11 -6 36 -11 54 -11 31 0 -6 -38 -610 -643 -353 -353 -642 -646
-642 -650 0 -4 12 -7 27 -7 23 0 212 185 1178 1150 l1150 1150 65 0 65 0
-1143 -1143 c-628 -628 -1142 -1146 -1142 -1150 0 -4 12 -7 27 -7 23 0 212
185 1178 1150 l1150 1150 65 0 65 0 -1143 -1143 c-628 -628 -1142 -1146 -1142
-1150 0 -4 12 -7 27 -7 23 0 212 185 1178 1150 l1150 1150 65 0 65 0 -1143
-1143 c-628 -628 -1142 -1146 -1142 -1150 0 -4 12 -7 27 -7 23 0 293 266 1711
1682 926 926 1692 1695 1703 1711 11 15 19 37 17 50 -4 18 -92 -65 -536 -508
l-532 -530 0 65 0 65 535 535 c447 447 535 540 535 563 0 23 -3 26 -17 18 -10
-5 -250 -242 -533 -526 l-515 -515 -5 57 -5 58 537 540 c445 448 538 545 538
568 0 15 -3 27 -7 27 -4 0 -251 -243 -548 -540 l-541 -541 -42 23 -41 23 589
590 c494 494 590 595 590 618 0 23 -3 26 -17 18 -10 -5 -292 -285 -628 -620
l-610 -611 -65 0 -65 0 693 693 c581 581 692 697 692 720 0 23 -3 26 -17 18
-10 -5 -337 -330 -728 -720 l-710 -711 -65 0 -65 0 793 793 c666 667 792 797
792 820 0 23 -3 26 -17 18 -10 -5 -382 -375 -828 -820 l-810 -811 -65 0 -65 0
893 893 c752 752 892 897 892 920 0 23 -3 26 -17 18 -10 -5 -427 -420 -928
-920 l-910 -911 -65 0 -65 0 993 993 c837 838 992 997 992 1020 0 23 -3 26
-17 18 -10 -5 -472 -465 -1028 -1020 l-1010 -1011 -65 0 -65 0 1093 1093 c923
923 1092 1097 1092 1120 0 23 -3 26 -17 18 -10 -5 -517 -510 -1128 -1120
l-1110 -1111 -65 0 -65 0 1138 1138 c625 625 1137 1141 1137 1145 0 4 -12 7
-27 7 -23 0 -212 -184 -1173 -1145 l-1145 -1145 -65 0 -65 0 1138 1138 c625
625 1137 1141 1137 1145 0 4 -12 7 -27 7 -23 0 -212 -184 -1173 -1145 l-1145
-1145 -65 0 -65 0 1138 1138 c625 625 1137 1141 1137 1145 0 4 -12 7 -27 7
-23 0 -212 -184 -1173 -1145 l-1145 -1145 -65 0 -65 0 1138 1138 c625 625
1137 1141 1137 1145 0 4 -12 7 -27 7 -23 0 -212 -184 -1173 -1145 -1006 -1006
-1149 -1145 -1175 -1145 -27 0 -1 28 272 303 270 271 303 307 313 347 11 41
74 108 801 835 434 435 789 794 789 798 0 4 -12 7 -27 7 -23 0 -155 -127 -798
-770 l-770 -770 -29 36 -29 36 727 727 c399 399 726 730 726 734 0 4 -12 7
-27 7 -23 0 -147 -119 -745 -717 l-718 -718 -32 33 -33 32 678 678 c372 372
677 681 677 685 0 4 -12 7 -27 7 -23 0 -139 -111 -694 -666 l-666 -665 -42 22
-43 22 636 636 c350 350 636 640 636 644 0 4 -12 7 -27 7 -23 0 -140 -112
-693 -662z m-630 -2233 l-84 -85 -33 32 -33 32 52 53 52 53 65 0 66 0 -85 -85z
m150 -50 l-134 -135 -33 32 -33 32 102 103 103 103 65 0 65 0 -135 -135z m150
-50 l-184 -185 -33 32 -33 32 152 153 153 153 65 0 65 0 -185 -185z m150 -50
l-234 -235 -33 32 -33 32 202 203 203 203 65 0 65 0 -235 -235z m150 -50
l-284 -285 -33 32 -33 32 252 253 253 253 65 0 65 0 -285 -285z m125 -75
c-198 -198 -361 -360 -363 -360 -2 0 0 9 3 20 4 11 1 37 -5 56 l-12 37 303
303 304 304 65 0 65 0 -360 -360z"/>
<path d="M3496 1650 c-889 -888 -1622 -1623 -1627 -1632 -8 -15 -5 -18 18 -18
24 0 269 241 1611 1583 871 870 1592 1594 1603 1610 11 15 19 37 17 50 -4 18
-279 -252 -1622 -1593z"/>
<path d="M3596 1550 c-834 -833 -1522 -1523 -1527 -1532 -8 -15 -5 -18 18 -18
23 0 254 226 1511 1483 816 815 1492 1494 1503 1510 11 15 19 37 17 50 -4 18
-262 -235 -1522 -1493z"/>
<path d="M3696 1450 c-779 -778 -1422 -1423 -1427 -1432 -8 -15 -5 -18 18 -18
23 0 239 212 1411 1383 761 760 1392 1394 1403 1410 11 15 19 37 17 50 -4 18
-245 -218 -1422 -1393z"/>
<path d="M3796 1350 c-724 -723 -1322 -1323 -1327 -1332 -8 -15 -5 -18 18 -18
23 0 225 197 1311 1283 706 705 1292 1294 1303 1310 11 15 19 37 17 50 -4 18
-227 -201 -1322 -1293z"/>
<path d="M3896 1250 c-669 -668 -1222 -1223 -1227 -1232 -8 -15 -5 -18 18 -18
23 0 210 183 1211 1182 651 651 1192 1195 1203 1211 11 15 19 37 17 50 -4 18
-210 -183 -1222 -1193z"/>
<path d="M3996 1150 c-614 -613 -1122 -1123 -1127 -1132 -8 -15 -5 -18 18 -18
23 0 196 168 1111 1082 596 596 1092 1095 1103 1111 11 15 19 37 17 50 -4 18
-193 -166 -1122 -1093z"/>
<path d="M4096 1050 c-559 -558 -1022 -1023 -1027 -1033 -8 -14 -5 -17 18 -17
23 0 181 153 1011 983 541 540 992 994 1003 1010 11 15 19 37 17 50 -4 18
-175 -149 -1022 -993z"/>
<path d="M4196 950 c-504 -503 -922 -923 -927 -932 -8 -15 -5 -18 18 -18 23 0
167 139 911 882 486 486 892 895 903 911 11 15 19 37 17 50 -4 18 -158 -132
-922 -893z"/>
<path d="M4296 850 c-449 -448 -822 -823 -827 -832 -8 -15 -5 -18 18 -18 23 0
152 124 811 783 431 430 792 794 803 810 11 15 19 37 17 50 -4 18 -141 -114
-822 -793z"/>
<path d="M4396 750 c-394 -393 -722 -723 -727 -732 -8 -15 -5 -18 18 -18 23 0
137 110 711 683 376 375 692 694 703 710 11 15 19 37 17 50 -4 18 -124 -97
-722 -693z"/>
<path d="M4496 650 c-339 -338 -622 -623 -627 -632 -8 -15 -5 -18 18 -18 23 0
123 95 611 583 321 320 592 594 603 610 11 15 19 37 17 50 -4 18 -106 -80
-622 -593z"/>
<path d="M4596 550 c-284 -283 -522 -523 -527 -533 -8 -14 -5 -17 18 -17 23 0
108 81 511 483 266 265 492 494 503 510 11 15 19 37 17 50 -4 18 -89 -62 -522
-493z"/>
<path d="M4696 450 c-229 -228 -422 -423 -427 -432 -8 -15 -5 -18 18 -18 22 0
93 66 411 383 211 210 392 394 403 410 11 15 19 37 17 50 -4 18 -72 -45 -422
-393z"/>
<path d="M4796 350 c-174 -173 -322 -323 -327 -332 -8 -15 -5 -18 17 -18 23 0
80 52 312 282 156 156 293 295 303 311 11 15 19 37 17 50 -4 18 -54 -28 -322
-293z"/>
<path d="M4896 250 c-119 -118 -222 -223 -227 -232 -8 -15 -5 -18 17 -18 21 0
65 37 211 183 205 202 226 227 221 260 -3 19 -37 -11 -222 -193z"/>
<path d="M4996 150 c-136 -133 -149 -150 -111 -150 18 0 49 23 111 82 102 98
127 130 122 161 -3 19 -19 7 -122 -93z"/>
</g>
</svg>
