<?xml version="1.0" standalone="no"?>
<!DOCTYPE svg PUBLIC "-//W3C//DTD SVG 20010904//EN"
 "http://www.w3.org/TR/2001/REC-SVG-20010904/DTD/svg10.dtd">
<svg version="1.0" xmlns="http://www.w3.org/2000/svg"
 width="820.000000pt" height="512.000000pt" viewBox="0 0 820.000000 512.000000"
 preserveAspectRatio="xMidYMid meet">
<metadata>
Created by potrace 1.15, written by Peter Selinger 2001-2017
</metadata>
<g transform="translate(0.000000,512.000000) scale(0.100000,-0.100000)"
fill="#000000" stroke="none">
<path d="M3632 3939 c-58 -17 -113 -84 -155 -192 l-39 -96 -361 -3 c-348 -3
-364 -4 -409 -25 -70 -32 -141 -103 -172 -172 l-26 -59 2 -994 3 -993 25 -48
c30 -60 105 -131 168 -160 l47 -22 1385 0 1385 0 47 22 c69 31 137 99 169 168
l29 60 0 986 0 986 -30 60 c-35 70 -101 135 -168 166 -45 21 -63 22 -394 25
l-346 3 -39 96 c-44 111 -97 175 -159 192 -49 14 -915 13 -962 0z m952 -73
c44 -18 57 -39 107 -165 23 -58 45 -109 49 -114 3 -4 168 -8 366 -10 l359 -2
57 -28 c31 -15 68 -43 83 -62 58 -76 56 -35 53 -1090 l-3 -970 -24 -48 c-14
-28 -41 -61 -64 -78 -85 -62 -14 -59 -1463 -59 -888 0 -1339 3 -1371 11 -65
14 -121 55 -158 114 l-30 48 -3 971 c-2 724 0 982 9 1014 18 67 60 116 126
148 l58 29 360 3 c198 1 367 2 376 2 11 0 32 38 68 124 53 126 67 147 111 165
15 6 199 10 463 10 353 1 444 -2 471 -13z"/>
<path d="M5054 3289 c-18 -5 -46 -25 -63 -44 -26 -30 -31 -44 -31 -85 0 -41 5
-55 31 -85 17 -19 48 -40 69 -46 88 -27 188 73 161 161 -11 39 -70 100 -96
100 -7 0 -19 2 -27 4 -7 2 -27 0 -44 -5z"/>
<path d="M3989 3140 c-285 -45 -528 -267 -605 -550 -24 -88 -24 -271 0 -360
74 -277 305 -492 583 -546 374 -71 747 169 849 546 24 88 24 272 0 358 -72
263 -278 470 -534 537 -76 19 -220 27 -293 15z m276 -85 c181 -46 345 -176
423 -335 57 -116 73 -184 73 -310 1 -125 -15 -193 -73 -310 -77 -157 -240
-289 -418 -335 -79 -21 -242 -24 -320 -6 -30 7 -97 33 -149 58 -77 37 -108 59
-172 122 -63 63 -85 95 -122 172 -54 112 -70 182 -70 304 1 297 188 547 473
632 93 27 263 31 355 8z"/>
<path d="M3965 2977 c-208 -53 -375 -221 -431 -430 -18 -67 -18 -207 0 -274
56 -211 218 -374 423 -427 78 -20 208 -20 287 0 200 52 372 226 422 426 22 92
16 240 -14 322 -62 170 -200 308 -365 366 -77 27 -247 36 -322 17z m253 -72
c149 -35 274 -135 337 -267 43 -91 59 -172 52 -268 -29 -368 -406 -577 -747
-413 -72 35 -177 141 -213 215 -192 400 145 833 571 733z"/>
</g>
</svg>
