<?xml version="1.0" standalone="no"?>
<!DOCTYPE svg PUBLIC "-//W3C//DTD SVG 20010904//EN"
 "http://www.w3.org/TR/2001/REC-SVG-20010904/DTD/svg10.dtd">
<svg version="1.0" xmlns="http://www.w3.org/2000/svg"
 width="300.000000pt" height="150.000000pt" viewBox="0 0 300.000000 150.000000"
 preserveAspectRatio="xMidYMid meet">
<metadata>
Created by potrace 1.15, written by Peter Selinger 2001-2017
</metadata>
<g transform="translate(0.000000,150.000000) scale(0.100000,-0.100000)"
fill="#000000" stroke="none">
<path d="M250 1311 c-14 -27 -13 -94 3 -114 6 -9 30 -17 52 -19 35 -3 40 -6
40 -28 0 -34 -48 -41 -67 -11 -17 28 -38 27 -38 -1 1 -40 23 -58 72 -58 56 0
68 13 68 70 0 54 -13 70 -56 70 -61 0 -72 61 -11 68 18 2 27 -2 32 -17 8 -27
35 -27 35 0 0 44 -18 59 -70 59 -39 0 -52 -4 -60 -19z"/>
<path d="M400 1205 l0 -125 70 0 c63 0 70 2 70 20 0 18 -7 20 -55 20 -54 0
-55 0 -55 30 0 29 2 30 45 30 38 0 45 3 45 20 0 17 -7 20 -45 20 -45 0 -45 0
-45 35 l0 35 55 0 c48 0 55 2 55 20 0 18 -7 20 -70 20 l-70 0 0 -125z"/>
<path d="M560 1224 c0 -132 6 -144 68 -144 27 0 53 5 60 12 8 8 12 50 12 125
0 94 -3 113 -15 113 -12 0 -15 -17 -15 -89 0 -105 -5 -121 -34 -121 -39 0 -46
19 -46 117 0 76 -3 93 -15 93 -12 0 -15 -18 -15 -106z"/>
<path d="M252 1023 c-5 -16 -64 -171 -131 -345 -67 -175 -121 -324 -121 -333
0 -13 21 -15 148 -15 l147 0 48 129 47 128 0 182 0 181 35 0 35 0 0 -310 0
-310 120 0 120 0 0 360 0 360 -219 0 -219 0 -10 -27z"/>
<path d="M853 1029 c-101 -65 -102 -307 -1 -369 28 -17 50 -20 141 -20 l107 0
0 -105 0 -105 -35 0 -35 0 0 60 0 60 -129 0 -129 0 5 -42 c3 -24 9 -57 14 -74
11 -37 63 -92 94 -100 12 -3 106 -4 209 -2 l188 3 33 37 c19 20 39 56 46 80
16 62 7 167 -21 215 -35 64 -60 73 -194 73 l-116 0 0 105 0 105 35 0 35 0 0
-60 0 -60 136 0 137 0 -5 48 c-6 65 -36 122 -77 149 -32 22 -43 23 -220 23
-170 0 -189 -2 -218 -21z"/>
<path d="M1513 1029 c-101 -65 -102 -307 -1 -369 28 -17 50 -20 141 -20 l107
0 0 -105 0 -105 -35 0 -35 0 0 60 0 60 -129 0 -129 0 5 -42 c3 -24 9 -57 14
-74 11 -37 63 -92 94 -100 12 -3 106 -4 209 -2 l188 3 33 37 c19 20 39 56 46
80 16 62 7 167 -21 215 -35 64 -60 73 -194 73 l-116 0 0 105 0 105 35 0 35 0
0 -60 0 -60 136 0 137 0 -5 48 c-6 65 -36 122 -77 149 -32 22 -43 23 -220 23
-170 0 -189 -2 -218 -21z"/>
<path d="M2090 690 l0 -360 125 0 125 0 0 360 0 360 -125 0 -125 0 0 -360z"/>
<path d="M2493 1029 c-101 -65 -102 -307 -1 -369 28 -17 50 -20 141 -20 l107
0 0 -105 0 -105 -35 0 -35 0 0 60 0 60 -129 0 -129 0 5 -42 c3 -24 9 -57 14
-74 11 -37 63 -92 94 -100 12 -3 105 -4 207 -2 183 3 187 3 213 28 46 43 55
72 55 176 0 79 -4 103 -21 134 -34 60 -60 70 -193 70 l-116 0 0 105 0 105 35
0 35 0 0 -60 0 -60 130 0 130 0 0 53 c0 64 -24 114 -69 144 -32 22 -43 23
-220 23 -170 0 -189 -2 -218 -21z"/>
</g>
</svg>
